<svg width="41" height="40" viewBox="0 0 41 40" fill="none" xmlns="http://www.w3.org/2000/svg">
<path d="M28 10H13V17.5H28V10Z" fill="url(#paint0_linear_63_279)"/>
<path d="M28 10H13V17.5H28V10Z" stroke="#1E293B" stroke-width="1.25" stroke-linecap="round" stroke-linejoin="round"/>
<path d="M33 33.75V6.25C33 5.55964 32.4404 5 31.75 5L9.25 5C8.55964 5 8 5.55964 8 6.25V33.75C8 34.4404 8.55964 35 9.25 35H31.75C32.4404 35 33 34.4404 33 33.75Z" stroke="#1E293B" stroke-width="1.25" stroke-linecap="round" stroke-linejoin="round"/>
<path d="M14.25 25C15.2855 25 16.125 24.1605 16.125 23.125C16.125 22.0895 15.2855 21.25 14.25 21.25C13.2145 21.25 12.375 22.0895 12.375 23.125C12.375 24.1605 13.2145 25 14.25 25Z" fill="#1E293B"/>
<path d="M20.5 25C21.5355 25 22.375 24.1605 22.375 23.125C22.375 22.0895 21.5355 21.25 20.5 21.25C19.4645 21.25 18.625 22.0895 18.625 23.125C18.625 24.1605 19.4645 25 20.5 25Z" fill="#1E293B"/>
<path d="M26.75 25C27.7855 25 28.625 24.1605 28.625 23.125C28.625 22.0895 27.7855 21.25 26.75 21.25C25.7145 21.25 24.875 22.0895 24.875 23.125C24.875 24.1605 25.7145 25 26.75 25Z" fill="#1E293B"/>
<path d="M14.25 31.25C15.2855 31.25 16.125 30.4105 16.125 29.375C16.125 28.3395 15.2855 27.5 14.25 27.5C13.2145 27.5 12.375 28.3395 12.375 29.375C12.375 30.4105 13.2145 31.25 14.25 31.25Z" fill="#1E293B"/>
<path d="M20.5 31.25C21.5355 31.25 22.375 30.4105 22.375 29.375C22.375 28.3395 21.5355 27.5 20.5 27.5C19.4645 27.5 18.625 28.3395 18.625 29.375C18.625 30.4105 19.4645 31.25 20.5 31.25Z" fill="#1E293B"/>
<path d="M26.75 31.25C27.7855 31.25 28.625 30.4105 28.625 29.375C28.625 28.3395 27.7855 27.5 26.75 27.5C25.7145 27.5 24.875 28.3395 24.875 29.375C24.875 30.4105 25.7145 31.25 26.75 31.25Z" fill="#1E293B"/>
<defs>
<linearGradient id="paint0_linear_63_279" x1="30.0625" y1="9.03125" x2="22.3423" y2="24.5713" gradientUnits="userSpaceOnUse">
<stop stop-color="#F6F661"/>
<stop offset="1" stop-color="#EAB308"/>
</linearGradient>
</defs>
</svg>
