<svg width="64" height="64" viewBox="0 0 64 64" fill="none" xmlns="http://www.w3.org/2000/svg">
<path d="M18 36C18 34.4177 18.4692 32.871 19.3482 31.5554C20.2273 30.2398 21.4767 29.2145 22.9385 28.609C24.4003 28.0035 26.0089 27.845 27.5607 28.1537C29.1126 28.4624 30.538 29.2243 31.6569 30.3431C32.7757 31.462 33.5376 32.8874 33.8463 34.4393C34.155 35.9911 33.9965 37.5997 33.391 39.0615C32.7855 40.5233 31.7602 41.7727 30.4446 42.6518C29.129 43.5308 27.5823 44 26 44H48V20H16V36H18Z" fill="url(#paint0_linear_154_353)"/>
<path d="M26 44C30.4183 44 34 40.4183 34 36C34 31.5817 30.4183 28 26 28C21.5817 28 18 31.5817 18 36C18 40.4183 21.5817 44 26 44Z" stroke="#1E293B" stroke-width="3" stroke-linecap="round" stroke-linejoin="round"/>
<path d="M13.35 52C14.4852 49.6058 16.2765 47.583 18.5158 46.1665C20.7551 44.75 23.3503 43.9981 26 43.9981C28.6497 43.9981 31.2449 44.75 33.4842 46.1665C35.7235 47.583 37.5148 49.6058 38.65 52H54C54.5304 52 55.0391 51.7893 55.4142 51.4142C55.7893 51.0391 56 50.5304 56 50V14C56 13.4696 55.7893 12.9609 55.4142 12.5858C55.0391 12.2107 54.5304 12 54 12H10C9.46957 12 8.96086 12.2107 8.58579 12.5858C8.21071 12.9609 8 13.4696 8 14V50C8 50.5304 8.21071 51.0391 8.58579 51.4142C8.96086 51.7893 9.46957 52 10 52H13.35Z" stroke="#1E293B" stroke-width="3" stroke-linecap="round" stroke-linejoin="round"/>
<path d="M44 44H48V20H16V24" stroke="#1E293B" stroke-width="3" stroke-linecap="round" stroke-linejoin="round"/>
<defs>
<linearGradient id="paint0_linear_154_353" x1="52.4" y1="16.9" x2="22.6935" y2="56.7642" gradientUnits="userSpaceOnUse">
<stop stop-color="#F6F661"/>
<stop offset="1" stop-color="#EAB308"/>
</linearGradient>
</defs>
</svg>
