<svg width="41" height="40" viewBox="0 0 41 40" fill="none" xmlns="http://www.w3.org/2000/svg">
<path d="M33 11.25H8V28.75H33V11.25Z" fill="url(#paint0_linear_63_260)"/>
<path d="M8 28.75V11.25" stroke="#1E293B" stroke-width="1.25" stroke-linecap="round" stroke-linejoin="round"/>
<path d="M33 11.25V28.75" stroke="#1E293B" stroke-width="1.25" stroke-linecap="round" stroke-linejoin="round"/>
<path d="M15.5 20V22.5" stroke="#1E293B" stroke-width="1.25" stroke-linecap="round" stroke-linejoin="round"/>
<path d="M20.5 18.75V22.5" stroke="#1E293B" stroke-width="1.25" stroke-linecap="round" stroke-linejoin="round"/>
<path d="M25.5 17.5V22.5" stroke="#1E293B" stroke-width="1.25" stroke-linecap="round" stroke-linejoin="round"/>
<path d="M34.25 6.25H6.75C6.05964 6.25 5.5 6.80964 5.5 7.5V10C5.5 10.6904 6.05964 11.25 6.75 11.25H34.25C34.9404 11.25 35.5 10.6904 35.5 10V7.5C35.5 6.80964 34.9404 6.25 34.25 6.25Z" stroke="#1E293B" stroke-width="1.25" stroke-linecap="round" stroke-linejoin="round"/>
<path d="M20.5 28.75V33.75" stroke="#1E293B" stroke-width="1.25" stroke-linecap="round" stroke-linejoin="round"/>
<path d="M20.5 38.75C21.8807 38.75 23 37.6307 23 36.25C23 34.8693 21.8807 33.75 20.5 33.75C19.1193 33.75 18 34.8693 18 36.25C18 37.6307 19.1193 38.75 20.5 38.75Z" stroke="#1E293B" stroke-width="1.25" stroke-linecap="round" stroke-linejoin="round"/>
<path d="M5.5 28.75H35.5" stroke="#1E293B" stroke-width="1.25" stroke-linecap="round" stroke-linejoin="round"/>
<defs>
<linearGradient id="paint0_linear_63_260" x1="36.4375" y1="8.98958" x2="15.2453" y2="39.4594" gradientUnits="userSpaceOnUse">
<stop stop-color="#F6F661"/>
<stop offset="1" stop-color="#EAB308"/>
</linearGradient>
</defs>
</svg>
