<svg width="41" height="40" viewBox="0 0 41 40" fill="none" xmlns="http://www.w3.org/2000/svg">
<path d="M4.25 15.1406H36.75V30C36.75 30.3315 36.6183 30.6495 36.3839 30.8839C36.1495 31.1183 35.8315 31.25 35.5 31.25H5.5C5.16848 31.25 4.85054 31.1183 4.61612 30.8839C4.3817 30.6495 4.25 30.3315 4.25 30V15.1406Z" fill="url(#paint0_linear_63_315)"/>
<path d="M35.5 8.75H5.5C4.80964 8.75 4.25 9.30964 4.25 10V30C4.25 30.6904 4.80964 31.25 5.5 31.25H35.5C36.1904 31.25 36.75 30.6904 36.75 30V10C36.75 9.30964 36.1904 8.75 35.5 8.75Z" stroke="#1E293B" stroke-width="1.25" stroke-linecap="round" stroke-linejoin="round"/>
<path d="M26.75 26.25H31.75" stroke="#1E293B" stroke-width="1.25" stroke-linecap="round" stroke-linejoin="round"/>
<path d="M19.25 26.25H21.75" stroke="#1E293B" stroke-width="1.25" stroke-linecap="round" stroke-linejoin="round"/>
<path d="M4.25 15.1406H36.75" stroke="#1E293B" stroke-width="1.25" stroke-linecap="round" stroke-linejoin="round"/>
<defs>
<linearGradient id="paint0_linear_63_315" x1="41.2188" y1="13.0598" x2="24.7236" y2="46.5528" gradientUnits="userSpaceOnUse">
<stop stop-color="#F6F661"/>
<stop offset="1" stop-color="#EAB308"/>
</linearGradient>
</defs>
</svg>
