<svg width="48" height="48" viewBox="0 0 48 48" fill="none" xmlns="http://www.w3.org/2000/svg">
<path d="M10.5 10.5V20.8313C10.5 28.275 16.4625 34.4438 23.9062 34.5C25.687 34.5124 27.4525 34.1723 29.1013 33.4994C30.75 32.8265 32.2493 31.8341 33.5129 30.5792C34.7764 29.3244 35.7792 27.832 36.4635 26.188C37.1478 24.5439 37.5 22.7808 37.5 21V10.5C37.5 10.1022 37.342 9.72064 37.0607 9.43934C36.7794 9.15804 36.3978 9 36 9H12C11.6022 9 11.2206 9.15804 10.9393 9.43934C10.658 9.72064 10.5 10.1022 10.5 10.5Z" fill="url(#paint0_linear_63_198)"/>
<path d="M10.5 10.5V20.8313C10.5 28.275 16.4625 34.4438 23.9062 34.5C25.687 34.5124 27.4525 34.1723 29.1013 33.4994C30.75 32.8265 32.2493 31.8341 33.5129 30.5792C34.7764 29.3244 35.7792 27.832 36.4635 26.188C37.1478 24.5439 37.5 22.7808 37.5 21V10.5C37.5 10.1022 37.342 9.72064 37.0607 9.43934C36.7794 9.15804 36.3978 9 36 9H12C11.6022 9 11.2206 9.15804 10.9393 9.43934C10.658 9.72064 10.5 10.1022 10.5 10.5Z" stroke="#1F2937" stroke-width="1.5" stroke-linecap="round" stroke-linejoin="round"/>
<path d="M18 42H30" stroke="#1F2937" stroke-width="1.5" stroke-linecap="round" stroke-linejoin="round"/>
<path d="M24 34.5V42" stroke="#1F2937" stroke-width="1.5" stroke-linecap="round" stroke-linejoin="round"/>
<path d="M37.1625 24H39C40.5913 24 42.1174 23.3679 43.2426 22.2426C44.3679 21.1174 45 19.5913 45 18V15C45 14.6022 44.842 14.2206 44.5607 13.9393C44.2794 13.658 43.8978 13.5 43.5 13.5H37.5" stroke="#1F2937" stroke-width="1.5" stroke-linecap="round" stroke-linejoin="round"/>
<path d="M10.875 24H8.98126C7.38996 24 5.86384 23.3679 4.73862 22.2426C3.6134 21.1174 2.98126 19.5913 2.98126 18V15C2.98126 14.6022 3.1393 14.2206 3.4206 13.9393C3.70191 13.658 4.08344 13.5 4.48126 13.5H10.4813" stroke="#1F2937" stroke-width="1.5" stroke-linecap="round" stroke-linejoin="round"/>
<defs>
<linearGradient id="paint0_linear_63_198" x1="41.2125" y1="5.70621" x2="8.34035" y2="40.7361" gradientUnits="userSpaceOnUse">
<stop stop-color="#F6F661"/>
<stop offset="1" stop-color="#EAB308"/>
</linearGradient>
</defs>
</svg>
