<svg width="64" height="64" viewBox="0 0 64 64" fill="none" xmlns="http://www.w3.org/2000/svg">
<path d="M14 14V27.775C14 37.7 21.95 45.925 31.875 46C34.2493 46.0165 36.6034 45.5631 38.8017 44.6659C41 43.7687 42.9991 42.4454 44.6838 40.7723C46.3685 39.0992 47.7056 37.1093 48.618 34.9173C49.5304 32.7253 50.0001 30.3744 50 28V14C50 13.4696 49.7893 12.9609 49.4142 12.5858C49.0391 12.2107 48.5304 12 48 12H16C15.4696 12 14.9609 12.2107 14.5858 12.5858C14.2107 12.9609 14 13.4696 14 14Z" fill="url(#paint0_linear_94_605)"/>
<path d="M14 14V27.775C14 37.7 21.95 45.925 31.875 46C34.2493 46.0165 36.6034 45.5631 38.8017 44.6659C41 43.7687 42.9991 42.4454 44.6838 40.7723C46.3685 39.0992 47.7056 37.1093 48.618 34.9173C49.5304 32.7253 50.0001 30.3744 50 28V14C50 13.4696 49.7893 12.9609 49.4142 12.5858C49.0391 12.2107 48.5304 12 48 12H16C15.4696 12 14.9609 12.2107 14.5858 12.5858C14.2107 12.9609 14 13.4696 14 14Z" stroke="#1F2937" stroke-width="2" stroke-linecap="round" stroke-linejoin="round"/>
<path d="M24 56H40" stroke="#1F2937" stroke-width="2" stroke-linecap="round" stroke-linejoin="round"/>
<path d="M32 46V56" stroke="#1F2937" stroke-width="2" stroke-linecap="round" stroke-linejoin="round"/>
<path d="M49.5498 32H51.9998C54.1215 32 56.1564 31.1571 57.6566 29.6569C59.1569 28.1566 59.9998 26.1217 59.9998 24V20C59.9998 19.4696 59.7891 18.9609 59.414 18.5858C59.0389 18.2107 58.5302 18 57.9998 18H49.9998" stroke="#1F2937" stroke-width="2" stroke-linecap="round" stroke-linejoin="round"/>
<path d="M14.5001 32H11.9751C9.85337 32 7.81854 31.1571 6.31824 29.6569C4.81795 28.1566 3.9751 26.1217 3.9751 24V20C3.9751 19.4696 4.18581 18.9609 4.56088 18.5858C4.93596 18.2107 5.44467 18 5.9751 18H13.9751" stroke="#1F2937" stroke-width="2" stroke-linecap="round" stroke-linejoin="round"/>
<defs>
<linearGradient id="paint0_linear_94_605" x1="54.95" y1="7.60828" x2="11.1205" y2="54.3148" gradientUnits="userSpaceOnUse">
<stop stop-color="#F6F661"/>
<stop offset="1" stop-color="#EAB308"/>
</linearGradient>
</defs>
</svg>
