<svg width="64" height="64" viewBox="0 0 64 64" fill="none" xmlns="http://www.w3.org/2000/svg">
<path d="M10 44V18C10 16.9391 10.4214 15.9217 11.1716 15.1716C11.9217 14.4214 12.9391 14 14 14H50C51.0609 14 52.0783 14.4214 52.8284 15.1716C53.5786 15.9217 54 16.9391 54 18V44H10Z" fill="url(#paint0_linear_94_378)"/>
<path d="M10 44V18C10 16.9391 10.4214 15.9217 11.1716 15.1716C11.9217 14.4214 12.9391 14 14 14H50C51.0609 14 52.0783 14.4214 52.8284 15.1716C53.5786 15.9217 54 16.9391 54 18V44" stroke="#1E293B" stroke-width="3" stroke-linecap="round" stroke-linejoin="round"/>
<path d="M6 44H58V48C58 49.0609 57.5786 50.0783 56.8284 50.8284C56.0783 51.5786 55.0609 52 54 52H10C8.93913 52 7.92172 51.5786 7.17157 50.8284C6.42143 50.0783 6 49.0609 6 48V44Z" stroke="#1E293B" stroke-width="3" stroke-linecap="round" stroke-linejoin="round"/>
<path d="M36 22H28" stroke="#1E293B" stroke-width="3" stroke-linecap="round" stroke-linejoin="round"/>
<defs>
<linearGradient id="paint0_linear_94_378" x1="60.05" y1="10.125" x2="24.0626" y2="63.247" gradientUnits="userSpaceOnUse">
<stop stop-color="#F6F661"/>
<stop offset="1" stop-color="#EAB308"/>
</linearGradient>
</defs>
</svg>
