<svg width="49" height="48" viewBox="0 0 49 48" fill="none" xmlns="http://www.w3.org/2000/svg">
<path d="M24.5 28.5C35.2696 28.5 44 24.4706 44 19.5C44 14.5294 35.2696 10.5 24.5 10.5C13.7304 10.5 5 14.5294 5 19.5C5 24.4706 13.7304 28.5 24.5 28.5Z" fill="url(#paint0_linear_63_184)"/>
<path d="M24.5 28.5C35.2696 28.5 44 24.4706 44 19.5C44 14.5294 35.2696 10.5 24.5 10.5C13.7304 10.5 5 14.5294 5 19.5C5 24.4706 13.7304 28.5 24.5 28.5Z" stroke="#1F2937" stroke-width="1.5" stroke-linecap="round" stroke-linejoin="round"/>
<path d="M24.5 28.5V37.5" stroke="#1F2937" stroke-width="1.5" stroke-linecap="round" stroke-linejoin="round"/>
<path d="M5 19.5V28.5C5 33 12.5 37.5 24.5 37.5C36.5 37.5 44 33 44 28.5V19.5" stroke="#1F2937" stroke-width="1.5" stroke-linecap="round" stroke-linejoin="round"/>
<path d="M36.5 26.6438V35.6438" stroke="#1F2937" stroke-width="1.5" stroke-linecap="round" stroke-linejoin="round"/>
<path d="M12.5 26.6438V35.6438" stroke="#1F2937" stroke-width="1.5" stroke-linecap="round" stroke-linejoin="round"/>
<defs>
<linearGradient id="paint0_linear_63_184" x1="49.3625" y1="8.175" x2="31.7433" y2="46.5962" gradientUnits="userSpaceOnUse">
<stop stop-color="#F6F661"/>
<stop offset="1" stop-color="#EAB308"/>
</linearGradient>
</defs>
</svg>
