<svg width="41" height="40" viewBox="0 0 41 40" fill="none" xmlns="http://www.w3.org/2000/svg">
<path d="M5.67188 11.6562C5.55866 11.8507 5.49933 12.0719 5.50001 12.2969V27.7031C5.5012 27.9257 5.56105 28.144 5.67353 28.336C5.786 28.528 5.94712 28.687 6.14063 28.7969L19.8906 36.5312C20.076 36.6372 20.2865 36.6911 20.5 36.6875L20.6406 20L5.67188 11.6562Z" fill="url(#paint0_linear_63_272)"/>
<path d="M35.5 27.7031V12.2968C35.4988 12.0743 35.439 11.856 35.3265 11.664C35.214 11.4719 35.0529 11.313 34.8594 11.2031L21.1094 3.4687C20.9241 3.36173 20.7139 3.30542 20.5 3.30542C20.2861 3.30542 20.0759 3.36173 19.8906 3.4687L6.14062 11.2031C5.94711 11.313 5.78599 11.4719 5.67352 11.664C5.56105 11.856 5.5012 12.0743 5.5 12.2968V27.7031C5.5012 27.9256 5.56105 28.1439 5.67352 28.3359C5.78599 28.528 5.94711 28.6869 6.14062 28.7968L19.8906 36.5312C20.0759 36.6382 20.2861 36.6945 20.5 36.6945C20.7139 36.6945 20.9241 36.6382 21.1094 36.5312L34.8594 28.7968C35.0529 28.6869 35.214 28.528 35.3265 28.3359C35.439 28.1439 35.4988 27.9256 35.5 27.7031V27.7031Z" stroke="#1E293B" stroke-width="1.25" stroke-linecap="round" stroke-linejoin="round"/>
<path d="M28.1562 23.8281V15.7031L13 7.34375" stroke="#1E293B" stroke-width="1.25" stroke-linecap="round" stroke-linejoin="round"/>
<path d="M35.3281 11.6562L20.6406 20L5.67188 11.6562" stroke="#1E293B" stroke-width="1.25" stroke-linecap="round" stroke-linejoin="round"/>
<path d="M20.6406 20L20.5 36.6875" stroke="#1E293B" stroke-width="1.25" stroke-linecap="round" stroke-linejoin="round"/>
<defs>
<linearGradient id="paint0_linear_63_272" x1="22.7225" y1="8.42303" x2="-5.99964" y2="25.9081" gradientUnits="userSpaceOnUse">
<stop stop-color="#F6F661"/>
<stop offset="1" stop-color="#EAB308"/>
</linearGradient>
</defs>
</svg>
